<svg xmlns="http://www.w3.org/2000/svg" width="31.051" height="26.836" viewBox="0 0 31.051 26.836">
  <g id="Group_4891" data-name="Group 4891" transform="translate(0)">
    <path id="Path_4305" data-name="Path 4305" d="M851.833,460.529c-4.429.657-8.425-1.448-8.454-5.781-.029-4.239,3.74-6.209,8.454-5.781h1.181a1.784,1.784,0,0,0,1.784-1.784v-.143a1.784,1.784,0,0,0-1.784-1.784h-4.019a9.464,9.464,0,1,0,0,18.927h4.019A1.784,1.784,0,0,0,854.8,462.4v-.086a1.784,1.784,0,0,0-1.784-1.784Z" transform="translate(-831.535 -444.981)" fill="#f07f18"/>
    <g id="Group_4890" data-name="Group 4890">
      <path id="Path_4306" data-name="Path 4306" d="M824.884,461.04a9.538,9.538,0,0,0-9.555-9.464h-4.019a1.784,1.784,0,0,0-1.784,1.784v.143a1.784,1.784,0,0,0,1.784,1.784h1.181c4.714-.428,8.483,1.542,8.454,5.781a5.68,5.68,0,0,1-4.654,5.632l-11.722.266c-3.721-.031-6.77-2.116-6.8-5.9,0-.019-.131-15.635-.131-15.635a1.766,1.766,0,1,0-3.533,0s-.275,15.6-.275,15.606a9.538,9.538,0,0,0,9.555,9.464h11.94a9.644,9.644,0,0,0,.993-.052h0A9.531,9.531,0,0,0,824.884,461.04Z" transform="translate(-793.833 -443.668)" fill="#f07f18"/>
    </g>
  </g>
</svg>
